<mxfile host="65bd71144e">
    <diagram id="g9YnP-U1NJViCF15-zai" name="PÃ¡gina-1">
        <mxGraphModel dx="701" dy="440" grid="1" gridSize="10" guides="1" tooltips="1" connect="1" arrows="1" fold="1" page="1" pageScale="1" pageWidth="850" pageHeight="1100" math="0" shadow="0">
            <root>
                <mxCell id="0"/>
                <mxCell id="1" parent="0"/>
                <mxCell id="11" value="Serie" style="swimlane;fontStyle=0;childLayout=stackLayout;horizontal=1;startSize=26;fillColor=none;horizontalStack=0;resizeParent=1;resizeParentMax=0;resizeLast=0;collapsible=1;marginBottom=0;" parent="1" vertex="1">
                    <mxGeometry x="120" y="110" width="190" height="160" as="geometry"/>
                </mxCell>
                <mxCell id="12" value="+ episodios : vector&lt;Episodio&gt;&#10;+ ID : str&#10;+ nombre : str&#10;+ genero : str" style="text;strokeColor=none;fillColor=none;align=left;verticalAlign=top;spacingLeft=4;spacingRight=4;overflow=hidden;rotatable=0;points=[[0,0.5],[1,0.5]];portConstraint=eastwest;" parent="11" vertex="1">
                    <mxGeometry y="26" width="190" height="134" as="geometry"/>
                </mxCell>
                <mxCell id="15" value="Episodio" style="swimlane;fontStyle=0;childLayout=stackLayout;horizontal=1;startSize=26;fillColor=none;horizontalStack=0;resizeParent=1;resizeParentMax=0;resizeLast=0;collapsible=1;marginBottom=0;" parent="1" vertex="1">
                    <mxGeometry x="145" y="350" width="140" height="150" as="geometry"/>
                </mxCell>
                <mxCell id="16" value="+ ID_episodio : str&#10;+ nombre_episodio : str&#10;+ temporada : int&#10;+ num_episodio : int&#10;+ duracion : float&#10;+ calificacion : float&#10;+ fecha_estreno : str" style="text;strokeColor=none;fillColor=none;align=left;verticalAlign=top;spacingLeft=4;spacingRight=4;overflow=hidden;rotatable=0;points=[[0,0.5],[1,0.5]];portConstraint=eastwest;" parent="15" vertex="1">
                    <mxGeometry y="26" width="140" height="124" as="geometry"/>
                </mxCell>
                <mxCell id="19" value="" style="endArrow=diamondThin;endFill=1;endSize=24;html=1;exitX=0.5;exitY=0;exitDx=0;exitDy=0;" parent="1" source="15" edge="1">
                    <mxGeometry width="160" relative="1" as="geometry">
                        <mxPoint x="330" y="360" as="sourcePoint"/>
                        <mxPoint x="215" y="270" as="targetPoint"/>
                    </mxGeometry>
                </mxCell>
                <mxCell id="23" value="Plataforma" style="swimlane;fontStyle=0;childLayout=stackLayout;horizontal=1;startSize=26;fillColor=none;horizontalStack=0;resizeParent=1;resizeParentMax=0;resizeLast=0;collapsible=1;marginBottom=0;" parent="1" vertex="1">
                    <mxGeometry x="400" y="170" width="177" height="66" as="geometry"/>
                </mxCell>
                <mxCell id="27" value="+ series : vector&amp;lt;Serie&amp;gt;&lt;br&gt;+ peliculas : vector &amp;lt;Pelicula&amp;gt;" style="text;html=1;align=center;verticalAlign=middle;resizable=0;points=[];autosize=1;strokeColor=none;fillColor=none;" parent="23" vertex="1">
                    <mxGeometry y="26" width="177" height="40" as="geometry"/>
                </mxCell>
                <mxCell id="13" value="Pelicula" style="swimlane;fontStyle=0;childLayout=stackLayout;horizontal=1;startSize=26;fillColor=none;horizontalStack=0;resizeParent=1;resizeParentMax=0;resizeLast=0;collapsible=1;marginBottom=0;" parent="1" vertex="1">
                    <mxGeometry x="650" y="110" width="140" height="160" as="geometry"/>
                </mxCell>
                <mxCell id="14" value="+ ID : str&#10;+ nombre : str&#10;+ genero : str&#10;+ calificacion : float&#10;+ duracion : float&#10;+ fecha_estreno : str" style="text;strokeColor=none;fillColor=none;align=left;verticalAlign=top;spacingLeft=4;spacingRight=4;overflow=hidden;rotatable=0;points=[[0,0.5],[1,0.5]];portConstraint=eastwest;" parent="13" vertex="1">
                    <mxGeometry y="26" width="140" height="134" as="geometry"/>
                </mxCell>
                <mxCell id="25" value="" style="endArrow=diamondThin;endFill=1;endSize=24;html=1;" parent="1" source="12" edge="1">
                    <mxGeometry width="160" relative="1" as="geometry">
                        <mxPoint x="225" y="360" as="sourcePoint"/>
                        <mxPoint x="400" y="200" as="targetPoint"/>
                    </mxGeometry>
                </mxCell>
                <mxCell id="28" value="" style="endArrow=diamondThin;endFill=1;endSize=24;html=1;exitX=0;exitY=0.5;exitDx=0;exitDy=0;entryX=1;entryY=0.5;entryDx=0;entryDy=0;" parent="1" source="14" target="23" edge="1">
                    <mxGeometry width="160" relative="1" as="geometry">
                        <mxPoint x="225" y="360" as="sourcePoint"/>
                        <mxPoint x="223.67000000000007" y="275.712" as="targetPoint"/>
                    </mxGeometry>
                </mxCell>
            </root>
        </mxGraphModel>
    </diagram>
</mxfile>